<?xml version="1.0" encoding="utf-8"?>
<svg viewBox="65 210.698 420 48.603" xmlns="http://www.w3.org/2000/svg">
  <g fill="#4093ff">
    <path d="M132.08593,259.30156h3.23965v-10.95534h-3.23965z"/>
    <path d="M145.34313,248.34622v2.28497h4.58559v8.67037h3.14575v-8.67037h4.58559v-2.28497z"/>
    <path d="M185.39301,252.94746v1.7685c0,2.80144 2.36322,4.58559 5.30551,4.58559h7.01142v-2.28497h-6.65146c-1.5807,0 -2.42582,-0.90773 -2.42582,-2.30062v-1.78416c0,-1.29899 0.84513,-2.30062 2.42582,-2.30062h6.65146v-2.28497h-6.99577c-2.95794,0 -5.32116,1.87806 -5.32116,4.60124z"/>
    <path d="M209.75458,254.51251c0,2.78579 1.86241,4.78905 5.58722,4.78905h3.27095c3.72481,0 5.58722,-2.00326 5.58722,-4.78905v-1.37724c0,-2.78579 -1.86241,-4.78905 -5.58722,-4.78905h-3.27095c-3.72481,0 -5.58722,2.00326 -5.58722,4.78905zM216.03042,250.45904h1.87806c2.20672,0 3.05184,0.82948 3.05184,2.73883v1.25204c0,1.89371 -0.84513,2.73883 -3.05184,2.73883h-1.87806c-2.19107,0 -3.03619,-0.84513 -3.03619,-2.73883v-1.25204c0,-1.90936 0.84513,-2.73883 3.03619,-2.73883z"/>
    <path d="M237.60983,248.34622v10.95534h3.23965v-7.9661l6.82361,7.9661h4.75775v-10.95534l-3.23965,0.04695v8.04435l-6.91751,-8.0913z"/>
    <path d="M269.27523,254.63772h6.08804c1.95631,0 1.89371,2.37887 0,2.39452h-8.74862v2.26932h10.03196l-0.01565,-0.01565c2.20672,-0.18781 3.30225,-1.7372 3.33355,-3.30225c0.0313,-1.7059 -1.23639,-3.42746 -3.77177,-3.42746h-5.94718c-1.79981,0 -1.7372,-2.11282 0,-2.11282h8.95208v-2.09716h-10.34497l0.01565,0.01565c-2.03456,0.17216 -3.05184,1.59635 -3.08315,3.03619c-0.0313,1.5807 1.14249,3.224 3.49006,3.23965z"/>
    <path d="M293.01871,248.34622v6.16629c0,2.78579 1.86241,4.78905 5.58722,4.78905h3.27095c3.72481,0 5.58722,-2.00326 5.58722,-4.78905v-6.16629h-3.23965v5.74373c0,1.90936 -1.07988,2.92664 -3.11445,2.92664h-1.7372c-2.03456,0 -3.11445,-1.01728 -3.11445,-2.92664v-5.74373z"/>
    <path d="M320.35159,254.71597c0,2.80144 2.36322,4.58559 5.30551,4.58559h7.01142v-2.28497h-6.65146c-1.5807,0 -2.42582,-0.90773 -2.42582,-2.30062v-6.36975h-3.23965z"/>
    <path d="M341.09738,248.34622v2.28497h4.58559v8.67037h3.14575v-8.67037h4.58559v-2.28497z"/>
    <path d="M364.03073,259.30156h3.23965v-10.95534h-3.23965z"/>
    <path d="M377.8103,248.34622v10.95534h3.23965v-7.9661l6.82361,7.9661h4.75775v-10.95534l-3.23965,0.04695v8.04435l-6.91751,-8.0913z"/>
    <path d="M410.90266,259.30156h7.01142v-5.28986h-3.224v3.00489h-3.42746c-1.5807,0 -2.42582,-0.90773 -2.42582,-2.30062v-1.78416c0,-1.29899 0.84513,-2.30062 2.42582,-2.30062h6.65146v-2.28497h-6.99577c-2.95794,0 -5.32116,1.87806 -5.32116,4.60124v1.7685c0,2.80144 2.36322,4.58559 5.30551,4.58559z"/>
  </g>
  <g>
    <path d="M90.92905,223.97035c-1.51886,-1.15722 -3.86947,-1.91665 -7.05183,-2.35061c-1.12106,-0.14465 -3.43551,-0.32547 -6.94334,-0.54245c-2.35061,-0.14465 -4.08645,-0.3978 -5.13518,-0.79559c-1.44653,-0.50629 -2.20596,-1.30188 -2.20596,-2.42294c0,-1.0849 0.6871,-1.91665 2.06131,-2.53143c1.3742,-0.61478 3.36318,-0.90408 5.96694,-0.90408c3.90563,0 7.70277,0.94024 11.46375,2.8569l1.772,-3.32702c-3.544,-2.1698 -7.84743,-3.25469 -12.91028,-3.25469c-4.08645,0 -7.23265,0.6871 -9.43861,2.06131c-2.24212,1.3742 -3.36318,3.25469 -3.36318,5.64147c0,2.31445 0.97641,3.97796 2.96539,4.95437c1.66351,0.83175 4.59273,1.3742 8.78767,1.66351c4.70122,0.32547 7.59428,0.61478 8.67918,0.86792c2.02514,0.54245 3.07388,1.62735 3.07388,3.21853c0,1.3742 -0.79559,2.4591 -2.35061,3.25469c-1.62735,0.83175 -3.94179,1.22955 -6.90718,1.22955c-4.55657,0 -8.82383,-1.19339 -12.80179,-3.61633l-1.59118,3.58016c3.544,2.49526 8.31755,3.72481 14.35681,3.72481c4.48424,0 7.88359,-0.72327 10.27036,-2.20596c2.38677,-1.48269 3.58016,-3.544 3.58016,-6.22008c0,-2.09747 -0.75943,-3.72481 -2.27828,-4.88204z" fill="#FF4000"/>
    <path d="M 96.24505 211.24089 L 96.24505 229.46717 L 100.43999000000001 229.46717 L 100.43999000000001 225.27223 L 118.41313000000001 225.27223 L 118.41313000000001 221.51125000000002 L 100.43999000000001 221.51125000000002 L 100.43999000000001 215.00186000000002 L 118.37696000000001 215.00186000000002 L 118.37696000000001 211.24088000000003 L 96.24505 211.24089 Z" fill="#FF4000"/>
    <path d="M 96.24505 232.75802 L 96.24505 236.55516 L 118.37696000000001 236.55516 L 118.37696000000001 232.75802 L 96.24505 232.75802 Z" fill="#4093ff"/>
    <path d="M147.45221,223.50023c2.20596,-1.22955 3.29086,-3.03771 3.29086,-5.35216c0,-2.09747 -0.72327,-3.76098 -2.20596,-5.02669c-1.48269,-1.26571 -3.47167,-1.88049 -6.03926,-1.88049h-20.4684v18.22628h4.19494v-3.86947h16.67126c3.07388,0 4.59273,1.26571 4.59273,3.72481c0,2.31445 -1.73584,3.47167 -5.24367,3.47167l-20.21526,-0.03616v3.79714h20.17909c6.4009,0 9.58326,-2.20596 9.58326,-6.65404c0,-3.29086 -1.44653,-5.42449 -4.33959,-6.4009zM145.46323,220.82415c-0.75943,0.6871 -1.73584,1.01257 -2.89306,1.01257h-16.34579v-6.83485h16.49044c1.22955,0 2.1698,0.32547 2.89306,0.94024c0.6871,0.61478 1.04873,1.41037 1.04873,2.4591c0,0.94024 -0.3978,1.772 -1.19339,2.42294z" fill="#FF4000"/>
    <path d="M 168.849 211.538 L 162.158 224.123 L 166.715 224.123 L 173.511 211.538 L 168.849 211.538 Z" fill="#4093ff"/>
    <path d="M 174.999 213.171 L 172.76 217.201 L 177.962 227.414 L 160.423 227.377 L 155.432 236.852 L 160.025 236.852 L 162.954 231.175 L 179.987 231.175 L 182.916 236.852 L 187.509 236.852 L 174.999 213.171 Z" fill="#FF4000"/>
    <path d="M216.95798,223.97035c-1.51886,-1.15722 -3.86947,-1.91665 -7.05183,-2.35061c-1.12106,-0.14465 -3.43551,-0.32547 -6.94334,-0.54245c-2.35061,-0.14465 -4.08645,-0.3978 -5.13518,-0.79559c-1.44653,-0.50629 -2.20596,-1.30188 -2.20596,-2.42294c0,-1.0849 0.6871,-1.91665 2.06131,-2.53143c1.3742,-0.61478 3.36318,-0.90408 5.96694,-0.90408c3.90563,0 7.70277,0.94024 11.46375,2.8569l1.772,-3.32702c-3.544,-2.1698 -7.84743,-3.25469 -12.91028,-3.25469c-4.08645,0 -7.23265,0.6871 -9.43861,2.06131c-2.24212,1.3742 -3.36318,3.25469 -3.36318,5.64147c0,2.31445 0.97641,3.97796 2.96539,4.95437c1.66351,0.83175 4.59273,1.3742 8.78767,1.66351c4.70122,0.32547 7.59428,0.61478 8.67918,0.86792c2.02514,0.54245 3.07388,1.62735 3.07388,3.21853c0,1.3742 -0.79559,2.4591 -2.35061,3.25469c-1.62735,0.83175 -3.94179,1.22955 -6.90718,1.22955c-4.55657,0 -8.82383,-1.19339 -12.80179,-3.61633l-1.59118,3.58016c3.544,2.49526 8.31755,3.72481 14.35681,3.72481c4.48424,0 7.88359,-0.72327 10.27036,-2.20596c2.38677,-1.48269 3.58016,-3.544 3.58016,-6.22008c0,-2.09747 -0.75943,-3.72481 -2.27828,-4.88204z" fill="#FF4000"/>
    <path d="M 250.66213 211.24089 L 222.27398 211.24089 L 222.27398 215.03803000000002 L 250.66213 215.03803000000002 L 250.66213 211.24089 Z" fill="#FF4000"/>
    <path d="M 238.54744 218.47354 L 234.3525 218.47354 L 234.3525 236.55517 L 238.54744 236.55517 L 238.54744 218.47354 Z" fill="#4093ff"/>
    <path d="M 297.78285 211.24089 L 297.78285 236.55517 L 301.97778999999997 236.55517 L 301.97778999999997 211.24089 L 297.78285 211.24089 Z" fill="#FF4000"/>
    <path d="M 275.497 211.255 L 268.806 223.84 L 273.363 223.84 L 280.159 211.255 L 275.497 211.255 Z" fill="#4093ff"/>
    <path d="M 281.647 212.888 L 279.408 216.918 L 284.61 227.131 L 267.071 227.094 L 262.08 236.569 L 266.673 236.569 L 269.602 230.892 L 286.635 230.892 L 289.564 236.569 L 294.157 236.569 L 281.647 212.888 Z" fill="#FF4000"/>
    <path d="M 326.53263 211.24089 L 322.33769 211.24089 L 322.33769 231.9986 L 305.26864 213.80848 L 305.26864 219.34146 L 321.28896000000003 236.55517 L 326.53263000000004 236.55517 L 326.53263 211.24089 Z" fill="#FF4000"/>
    <path d="M 369.38609 211.24089 L 340.99794 211.24089 L 340.99794 215.03803000000002 L 369.38609 215.03803000000002 L 369.38609 211.24089 Z" fill="#4093ff"/>
    <path d="M 357.2714 218.47354 L 353.07646000000005 218.47354 L 353.07646000000005 236.55517 L 357.2714 236.55517 L 357.2714 218.47354 Z" fill="#FF4000"/>
    <path d="M 373.00241 211.24089 L 373.00241 218.2204 L 377.23351 218.2204 L 377.23351 211.24089 L 373.00241 211.24089 Z" fill="#FF4000"/>
    <path d="M 401.67987 211.24089 L 397.48493 211.24089 L 397.48493 221.51125000000002 L 373.00241 221.51125000000002 L 373.00241 236.55516000000003 L 377.23351 236.55516000000003 L 377.23351 225.30839000000003 L 397.48493 225.30839000000003 L 397.48493 236.55516000000003 L 401.67987 236.55516000000003 L 401.67987 211.24089 Z" fill="#4093ff"/>
    <path d="M 405.29619 211.24089 L 405.29619 229.46717 L 409.49113 229.46717 L 409.49113 225.27223 L 427.46427 225.27223 L 427.46427 221.51125000000002 L 409.49113 221.51125000000002 L 409.49113 215.00186000000002 L 427.4281 215.00186000000002 L 427.4281 211.24088000000003 L 405.29619 211.24089 Z" fill="#4093ff"/>
    <path d="M 405.29619 232.75802 L 405.29619 236.55516 L 427.42810000000003 236.55516 L 427.42810000000003 232.75802 L 405.29619 232.75802 Z" fill="#FF4000"/>
    <path d="M 431.08059 211.24089 L 431.08059 229.46717 L 435.27552999999995 229.46717 L 435.27552999999995 225.27223 L 453.24866999999995 225.27223 L 453.24866999999995 221.51125000000002 L 435.27552999999995 221.51125000000002 L 435.27552999999995 215.00186000000002 L 453.2124999999999 215.00186000000002 L 453.2124999999999 211.24088000000003 L 431.08059 211.24089 Z" fill="#4093ff"/>
    <path d="M 431.08059 232.75802 L 431.08059 236.55516 L 453.2125 236.55516 L 453.2125 232.75802 L 431.08059 232.75802 Z" fill="#FF4000"/>
    <path d="M482.72172,223.97035c-1.51886,-1.15722 -3.86947,-1.91665 -7.05183,-2.35061c-1.12106,-0.14465 -3.43551,-0.32547 -6.94334,-0.54245c-2.35061,-0.14465 -4.08645,-0.3978 -5.13518,-0.79559c-1.44653,-0.50629 -2.20596,-1.30188 -2.20596,-2.42294c0,-1.0849 0.6871,-1.91665 2.06131,-2.53143c1.3742,-0.61478 3.36318,-0.90408 5.96694,-0.90408c3.90563,0 7.70277,0.94024 11.46375,2.8569l1.772,-3.32702c-3.544,-2.1698 -7.84743,-3.25469 -12.91028,-3.25469c-4.08645,0 -7.23265,0.6871 -9.43861,2.06131c-2.24212,1.3742 -3.36318,3.25469 -3.36318,5.64147c0,2.31445 0.97641,3.97796 2.96539,4.95437c1.66351,0.83175 4.59273,1.3742 8.78767,1.66351c4.70122,0.32547 7.59428,0.61478 8.67918,0.86792c2.02514,0.54245 3.07388,1.62735 3.07388,3.21853c0,1.3742 -0.79559,2.4591 -2.35061,3.25469c-1.62735,0.83175 -3.94179,1.22955 -6.90718,1.22955c-4.55657,0 -8.82383,-1.19339 -12.80179,-3.61633l-1.59118,3.58016c3.544,2.49526 8.31755,3.72481 14.35681,3.72481c4.48424,0 7.88359,-0.72327 10.27036,-2.20596c2.38677,-1.48269 3.58016,-3.544 3.58016,-6.22008c0,-2.09747 -0.75943,-3.72481 -2.27828,-4.88204z" fill="#4093ff"/>
    <path d="M 254.309 211.225 L 254.309 215.057 L 258.541 215.057 L 258.541 211.225 L 254.309 211.225 Z" fill="#4093ff"/>
    <path d="M 258.508 218.532 L 254.313 218.532 L 254.313 236.613 L 258.508 236.613 L 258.508 218.532 Z" fill="#FF4000"/>
  </g>
</svg>