<svg viewBox="65 210.698 420 48.603" xmlns="http://www.w3.org/2000/svg"><g data-paper-data="{&quot;isSecondaryText&quot;:true}" fill="#1E8DEE"><path d="M132.086 259.302h3.24v-10.956h-3.24z" data-paper-data="{&quot;glyphName&quot;:&quot;I&quot;,&quot;glyphIndex&quot;:0,&quot;firstGlyphOfWord&quot;:true,&quot;word&quot;:1}"/><path d="M145.343 248.346v2.285h4.586v8.67h3.145v-8.67h4.586v-2.285z" data-paper-data="{&quot;glyphName&quot;:&quot;T&quot;,&quot;glyphIndex&quot;:1,&quot;lastGlyphOfWord&quot;:true,&quot;word&quot;:1}"/><path d="M185.393 252.947v1.769c0 2.801 2.363 4.586 5.306 4.586h7.01v-2.285h-6.65c-1.581 0-2.426-.908-2.426-2.301v-1.784c0-1.3.845-2.3 2.425-2.3h6.652v-2.286h-6.996c-2.958 0-5.321 1.878-5.321 4.601z" data-paper-data="{&quot;glyphName&quot;:&quot;C&quot;,&quot;glyphIndex&quot;:2,&quot;firstGlyphOfWord&quot;:true,&quot;word&quot;:2}"/><path d="M209.755 254.513c0 2.785 1.862 4.789 5.587 4.789h3.27c3.726 0 5.588-2.004 5.588-4.79v-1.377c0-2.786-1.862-4.789-5.587-4.789h-3.271c-3.725 0-5.587 2.003-5.587 4.79zm6.275-4.054h1.878c2.207 0 3.052.83 3.052 2.739v1.252c0 1.894-.845 2.739-3.052 2.739h-1.878c-2.19 0-3.036-.845-3.036-2.74v-1.251c0-1.91.845-2.739 3.036-2.739z" data-paper-data="{&quot;glyphName&quot;:&quot;O&quot;,&quot;glyphIndex&quot;:3,&quot;word&quot;:2}"/><path d="M237.61 248.346v10.956h3.24v-7.967l6.823 7.967h4.758v-10.956l-3.24.047v8.045l-6.917-8.092z" data-paper-data="{&quot;glyphName&quot;:&quot;N&quot;,&quot;glyphIndex&quot;:4,&quot;word&quot;:2}"/><path d="M269.275 254.638h6.088c1.957 0 1.894 2.379 0 2.394h-8.748v2.27h10.032l-.016-.016c2.207-.188 3.302-1.737 3.334-3.302.03-1.706-1.237-3.428-3.772-3.428h-5.947c-1.8 0-1.738-2.113 0-2.113h8.952v-2.097h-10.345l.015.016c-2.034.172-3.052 1.596-3.083 3.036-.031 1.58 1.143 3.224 3.49 3.24z" data-paper-data="{&quot;glyphName&quot;:&quot;S&quot;,&quot;glyphIndex&quot;:5,&quot;word&quot;:2}"/><path d="M293.019 248.346v6.167c0 2.785 1.862 4.789 5.587 4.789h3.27c3.726 0 5.588-2.004 5.588-4.79v-6.166h-3.24v5.744c0 1.91-1.08 2.927-3.114 2.927h-1.737c-2.035 0-3.115-1.018-3.115-2.927v-5.744z" data-paper-data="{&quot;glyphName&quot;:&quot;U&quot;,&quot;glyphIndex&quot;:6,&quot;word&quot;:2}"/><path d="M320.352 254.716c0 2.801 2.363 4.586 5.305 4.586h7.012v-2.285h-6.652c-1.58 0-2.426-.908-2.426-2.301v-6.37h-3.24z" data-paper-data="{&quot;glyphName&quot;:&quot;L&quot;,&quot;glyphIndex&quot;:7,&quot;word&quot;:2}"/><path d="M341.097 248.346v2.285h4.586v8.67h3.146v-8.67h4.585v-2.285z" data-paper-data="{&quot;glyphName&quot;:&quot;T&quot;,&quot;glyphIndex&quot;:8,&quot;word&quot;:2}"/><path d="M364.03 259.302h3.24v-10.956h-3.24z" data-paper-data="{&quot;glyphName&quot;:&quot;I&quot;,&quot;glyphIndex&quot;:9,&quot;word&quot;:2}"/><path d="M377.81 248.346v10.956h3.24v-7.967l6.824 7.967h4.757v-10.956l-3.24.047v8.045l-6.917-8.092z" data-paper-data="{&quot;glyphName&quot;:&quot;N&quot;,&quot;glyphIndex&quot;:10,&quot;word&quot;:2}"/><path d="M410.903 259.302h7.011v-5.29h-3.224v3.005h-3.427c-1.581 0-2.426-.908-2.426-2.301v-1.784c0-1.3.845-2.3 2.426-2.3h6.651v-2.286h-6.996c-2.958 0-5.32 1.878-5.32 4.601v1.769c0 2.801 2.362 4.586 5.305 4.586z" data-paper-data="{&quot;glyphName&quot;:&quot;G&quot;,&quot;glyphIndex&quot;:11,&quot;lastGlyphOfWord&quot;:true,&quot;word&quot;:2}"/></g><g data-paper-data="{&quot;isPrimaryText&quot;:true}"><path d="M90.929 223.97c-1.519-1.157-3.87-1.916-7.052-2.35-1.12-.145-3.435-.326-6.943-.543-2.35-.144-4.087-.398-5.135-.795-1.447-.507-2.206-1.302-2.206-2.423 0-1.085.687-1.917 2.061-2.532 1.374-.614 3.363-.904 5.967-.904 3.906 0 7.703.94 11.464 2.857l1.772-3.327c-3.544-2.17-7.848-3.255-12.91-3.255-4.087 0-7.233.688-9.44 2.062-2.241 1.374-3.362 3.254-3.362 5.641 0 2.315.976 3.978 2.965 4.955 1.664.831 4.593 1.374 8.788 1.663 4.701.326 7.594.615 8.679.868 2.025.542 3.074 1.627 3.074 3.219 0 1.374-.796 2.459-2.35 3.254-1.628.832-3.943 1.23-6.908 1.23-4.557 0-8.824-1.194-12.802-3.617L65 233.553c3.544 2.496 8.318 3.725 14.357 3.725 4.484 0 7.883-.723 10.27-2.206 2.387-1.482 3.58-3.544 3.58-6.22 0-2.097-.76-3.724-2.278-4.882z" data-paper-data="{&quot;glyphName&quot;:&quot;S&quot;,&quot;glyphIndex&quot;:0,&quot;firstGlyphOfWord&quot;:true,&quot;word&quot;:1}" data-original-fill="#fc4c02" fill="#fc3002"/><path d="M96.245 211.24v18.227h4.195v-4.195h17.973v-3.76H100.44v-6.51h17.937v-3.761H96.245z" data-paper-data="{&quot;glyphName&quot;:&quot;E&quot;,&quot;glyphIndex&quot;:1,&quot;word&quot;:1}" data-original-fill="#fc4c02" fill="#fc3002"/><path d="M96.245 232.758v3.797h22.132v-3.797H96.245z" data-paper-data="{&quot;glyphName&quot;:&quot;E&quot;,&quot;glyphIndex&quot;:1,&quot;word&quot;:1}" data-original-fill="#fc4c02" fill="#1e8dee"/><path d="M147.452 223.5c2.206-1.23 3.291-3.037 3.291-5.352 0-2.097-.723-3.76-2.206-5.027-1.483-1.265-3.472-1.88-6.04-1.88H122.03v18.226h4.195v-3.87h16.672c3.074 0 4.592 1.266 4.592 3.726 0 2.314-1.735 3.471-5.243 3.471l-20.216-.036v3.797h20.18c6.4 0 9.583-2.206 9.583-6.654 0-3.29-1.447-5.424-4.34-6.4zm-1.989-2.676c-.76.687-1.736 1.013-2.893 1.013h-16.346v-6.835h16.49c1.23 0 2.17.325 2.894.94.687.615 1.049 1.41 1.049 2.46 0 .94-.398 1.771-1.194 2.422z" data-paper-data="{&quot;glyphName&quot;:&quot;B&quot;,&quot;glyphIndex&quot;:2,&quot;word&quot;:1}" data-original-fill="#fc4c02" fill="#fc3002"/><path d="M168.849 211.538l-6.691 12.585h4.557l6.796-12.585h-4.662z" fill="#1e8dee"/><path d="M174.999 213.171l-2.239 4.03 5.202 10.213-17.539-.037-4.991 9.475h4.593l2.929-5.677h17.033l2.929 5.677h4.593l-12.51-23.681z" fill="#fc3002"/><path d="M216.958 223.97c-1.519-1.157-3.87-1.916-7.052-2.35-1.12-.145-3.435-.326-6.943-.543-2.35-.144-4.087-.398-5.135-.795-1.447-.507-2.206-1.302-2.206-2.423 0-1.085.687-1.917 2.061-2.532 1.374-.614 3.363-.904 5.967-.904 3.906 0 7.703.94 11.464 2.857l1.772-3.327c-3.544-2.17-7.848-3.255-12.91-3.255-4.087 0-7.233.688-9.44 2.062-2.241 1.374-3.362 3.254-3.362 5.641 0 2.315.976 3.978 2.965 4.955 1.663.831 4.593 1.374 8.788 1.663 4.7.326 7.594.615 8.679.868 2.025.542 3.074 1.627 3.074 3.219 0 1.374-.796 2.459-2.35 3.254-1.628.832-3.943 1.23-6.908 1.23-4.557 0-8.824-1.194-12.802-3.617l-1.591 3.58c3.544 2.496 8.318 3.725 14.357 3.725 4.484 0 7.883-.723 10.27-2.206 2.387-1.482 3.58-3.544 3.58-6.22 0-2.097-.76-3.724-2.278-4.882z" data-paper-data="{&quot;glyphName&quot;:&quot;S&quot;,&quot;glyphIndex&quot;:4,&quot;word&quot;:1}" data-original-fill="#fc4c02" fill="#fc3002"/><path d="M250.662 211.24h-28.388v3.798h28.388v-3.797z" data-paper-data="{&quot;glyphName&quot;:&quot;T&quot;,&quot;glyphIndex&quot;:5,&quot;word&quot;:1}" data-original-fill="#fc4c02" fill="#fc3002"/><path d="M238.547 218.474h-4.195v18.081h4.195v-18.081z" data-paper-data="{&quot;glyphName&quot;:&quot;T&quot;,&quot;glyphIndex&quot;:5,&quot;word&quot;:1}" data-original-fill="#fc4c02" fill="#1e8dee"/><path d="M297.783 211.24v25.315h4.195v-25.314h-4.195z" data-paper-data="{&quot;glyphName&quot;:&quot;N&quot;,&quot;glyphIndex&quot;:8,&quot;lastGlyphOfWord&quot;:true,&quot;word&quot;:1}" data-original-fill="#fc4c02" fill="#fc3002"/><path d="M275.497 211.255l-6.691 12.585h4.557l6.796-12.585h-4.662z" fill="#1e8dee"/><path d="M281.647 212.888l-2.239 4.03 5.202 10.213-17.539-.037-4.991 9.475h4.593l2.929-5.677h17.033l2.929 5.677h4.593l-12.51-23.681z" fill="#fc3002"/><path d="M326.533 211.24h-4.195V232l-17.07-18.19v5.532l16.021 17.214h5.244v-25.314z" data-paper-data="{&quot;glyphName&quot;:&quot;N&quot;,&quot;glyphIndex&quot;:8,&quot;lastGlyphOfWord&quot;:true,&quot;word&quot;:1}" data-original-fill="#fc4c02" fill="#fc3002"/><path d="M369.386 211.24h-28.388v3.798h28.388v-3.797z" data-paper-data="{&quot;glyphName&quot;:&quot;T&quot;,&quot;glyphIndex&quot;:9,&quot;firstGlyphOfWord&quot;:true,&quot;word&quot;:2}" fill="#1E8DEE" data-original-fill="#1E8DEE"/><path d="M357.271 218.474h-4.195v18.081h4.195v-18.081z" data-paper-data="{&quot;glyphName&quot;:&quot;T&quot;,&quot;glyphIndex&quot;:9,&quot;firstGlyphOfWord&quot;:true,&quot;word&quot;:2}" data-original-fill="#1E8DEE" fill="#fc3002"/><path d="M373.002 211.24v6.98h4.232v-6.98h-4.232z" data-paper-data="{&quot;glyphName&quot;:&quot;H&quot;,&quot;glyphIndex&quot;:10,&quot;word&quot;:2}" data-original-fill="#1E8DEE" fill="#fc3002"/><path d="M401.68 211.24h-4.195v10.271h-24.483v15.044h4.232v-11.247h20.25v11.247h4.196v-25.314z" data-paper-data="{&quot;glyphName&quot;:&quot;H&quot;,&quot;glyphIndex&quot;:10,&quot;word&quot;:2}" fill="#1E8DEE" data-original-fill="#1E8DEE"/><path d="M405.296 211.24v18.227h4.195v-4.195h17.973v-3.76h-17.973v-6.51h17.937v-3.761h-22.132z" data-paper-data="{&quot;glyphName&quot;:&quot;E&quot;,&quot;glyphIndex&quot;:11,&quot;word&quot;:2}" fill="#1E8DEE" data-original-fill="#1E8DEE"/><path d="M405.296 232.758v3.797h22.132v-3.797h-22.132z" data-paper-data="{&quot;glyphName&quot;:&quot;E&quot;,&quot;glyphIndex&quot;:11,&quot;word&quot;:2}" data-original-fill="#1E8DEE" fill="#fc3002"/><path d="M431.08 211.24v18.227h4.196v-4.195h17.973v-3.76h-17.973v-6.51h17.936v-3.761h-22.131z" data-paper-data="{&quot;glyphName&quot;:&quot;E&quot;,&quot;glyphIndex&quot;:12,&quot;word&quot;:2}" fill="#1E8DEE" data-original-fill="#1E8DEE"/><path d="M431.08 232.758v3.797h22.132v-3.797h-22.131z" data-paper-data="{&quot;glyphName&quot;:&quot;E&quot;,&quot;glyphIndex&quot;:12,&quot;word&quot;:2}" data-original-fill="#1E8DEE" fill="#fc3002"/><path d="M482.722 223.97c-1.52-1.157-3.87-1.916-7.052-2.35-1.121-.145-3.436-.326-6.943-.543-2.351-.144-4.087-.398-5.136-.795-1.446-.507-2.206-1.302-2.206-2.423 0-1.085.688-1.917 2.062-2.532 1.374-.614 3.363-.904 5.967-.904 3.905 0 7.702.94 11.463 2.857l1.772-3.327c-3.544-2.17-7.847-3.255-12.91-3.255-4.086 0-7.233.688-9.438 2.062-2.243 1.374-3.364 3.254-3.364 5.641 0 2.315.977 3.978 2.966 4.955 1.663.831 4.592 1.374 8.787 1.663 4.702.326 7.595.615 8.68.868 2.025.542 3.073 1.627 3.073 3.219 0 1.374-.795 2.459-2.35 3.254-1.628.832-3.942 1.23-6.907 1.23-4.557 0-8.824-1.194-12.802-3.617l-1.591 3.58c3.544 2.496 8.317 3.725 14.357 3.725 4.484 0 7.883-.723 10.27-2.206 2.387-1.482 3.58-3.544 3.58-6.22 0-2.097-.76-3.724-2.278-4.882z" data-paper-data="{&quot;glyphName&quot;:&quot;S&quot;,&quot;glyphIndex&quot;:13,&quot;lastGlyphOfWord&quot;:true,&quot;word&quot;:2}" fill="#1E8DEE" data-original-fill="#1E8DEE"/><path d="M254.309 211.225v3.832h4.232v-3.832h-4.232z" data-paper-data="{&quot;glyphName&quot;:&quot;H&quot;,&quot;glyphIndex&quot;:10,&quot;word&quot;:2}" data-original-fill="#1E8DEE" fill="#1e8dee"/><path d="M258.508 218.532h-4.195v18.081h4.195v-18.081z" data-paper-data="{&quot;glyphName&quot;:&quot;T&quot;,&quot;glyphIndex&quot;:9,&quot;firstGlyphOfWord&quot;:true,&quot;word&quot;:2}" data-original-fill="#1E8DEE" fill="#fc3002"/></g></svg>