<?xml version="1.0" encoding="UTF-8"?>
<svg xmlns="http://www.w3.org/2000/svg" xmlns:xlink="http://www.w3.org/1999/xlink" width="570pt" height="270pt" viewBox="0 0 570 270" version="1.1">
<g>
<path fill="#FF4000" d="M 259.289062 132.71875 C 244.101562 121.148438 220.59375 113.550781 188.773438 109.214844 C 177.5625 107.765625 154.417969 105.957031 119.339844 103.789062 C 95.832031 102.34375 78.472656 99.808594 67.988281 95.832031 C 53.519531 90.769531 45.925781 82.8125 45.925781 71.601562 C 45.925781 60.753906 52.796875 52.4375 66.539062 46.289062 C 80.28125 40.140625 100.171875 37.25 126.210938 37.25 C 165.265625 37.25 203.238281 46.652344 240.847656 65.816406 L 258.566406 32.546875 C 223.128906 10.847656 180.09375 0 129.464844 0 C 88.601562 0 57.136719 6.871094 35.078125 20.613281 C 12.65625 34.355469 1.445312 53.160156 1.445312 77.027344 C 1.445312 100.171875 11.210938 116.808594 31.101562 126.570312 C 47.734375 134.890625 77.027344 140.3125 118.976562 143.207031 C 165.988281 146.460938 194.917969 149.355469 205.769531 151.886719 C 226.019531 157.308594 236.507812 168.160156 236.507812 184.070312 C 236.507812 197.8125 228.550781 208.660156 213 216.617188 C 196.726562 224.933594 173.582031 228.914062 143.929688 228.914062 C 98.363281 228.914062 55.691406 216.980469 15.910156 192.75 L 0 228.550781 C 35.441406 253.503906 83.175781 265.800781 143.566406 265.800781 C 188.410156 265.800781 222.402344 258.566406 246.273438 243.742188 C 270.140625 228.914062 282.074219 208.300781 282.074219 181.539062 C 282.074219 160.566406 274.480469 144.292969 259.289062 132.71875 Z M 259.289062 132.71875 "/>
<path fill="#4093ff" d="M 572.316406 5.425781 L 288.433594 5.425781 L 288.433594 43.394531 L 572.316406 43.394531 Z M 572.316406 5.425781 "/>
<path fill="#4093ff" d="M 572.316406 5.425781 L 288.433594 5.425781 L 288.433594 43.394531 L 572.316406 43.394531 Z M 572.316406 5.425781 "/>
<path fill="#FF4000" d="M 451.167969 77.75 L 409.21875 77.75 L 409.21875 258.566406 L 451.167969 258.566406 Z M 451.167969 77.75 "/>
<path fill="#FF4000" d="M 451.167969 77.75 L 409.21875 77.75 L 409.21875 258.566406 L 451.167969 258.566406 Z M 451.167969 77.75 "/>
<path fill="#FF4000" d="M 451.167969 77.75 L 409.21875 77.75 L 409.21875 258.566406 L 451.167969 258.566406 Z M 451.167969 77.75 "/>
</g>
</svg>