<svg xmlns="http://www.w3.org/2000/svg" width="760" height="360" viewBox="0 0 570 270"><path d="M259.29 132.719c-15.188-11.57-38.696-19.168-70.517-23.504-11.21-1.45-34.355-3.258-69.433-5.426-23.508-1.445-40.867-3.98-51.352-7.957-14.468-5.062-22.062-13.02-22.062-24.23 0-10.848 6.87-19.165 20.613-25.313 13.742-6.148 33.633-9.039 59.672-9.039 39.055 0 77.027 9.402 114.637 28.566l17.718-33.27C223.13 10.849 180.094 0 129.465 0 88.602 0 57.137 6.871 35.078 20.613 12.656 34.355 1.445 53.16 1.445 77.027c0 23.145 9.766 39.782 29.657 49.543 16.632 8.32 45.925 13.743 87.875 16.637 47.011 3.254 75.941 6.148 86.793 8.68 20.25 5.422 30.738 16.273 30.738 32.183 0 13.743-7.957 24.59-23.508 32.547-16.273 8.317-39.418 12.297-69.07 12.297-45.567 0-88.239-11.934-128.02-36.164L0 228.55c35.441 24.954 83.176 37.25 143.566 37.25 44.844 0 78.836-7.234 102.707-22.058 23.868-14.828 35.801-35.441 35.801-62.203 0-20.973-7.594-37.246-22.785-48.82zm0 0" fill="#fc3002"/><path d="M572.316 5.426H288.434v37.969h283.882zm0 0" fill="#1E8DEE"/><path d="M572.316 5.426H288.434v37.969h283.882zm0 0" fill="#1E8DEE"/><path d="M451.168 77.75h-41.95v180.816h41.95zm0 0" fill="#fc3002"/><path d="M451.168 77.75h-41.95v180.816h41.95zm0 0" fill="#fc3002"/><path d="M451.168 77.75h-41.95v180.816h41.95zm0 0" fill="#fc3002"/></svg>