<?xml version="1.0" encoding="utf-8"?>
<svg viewBox="1307.998 601.198 144.002 26.58" xmlns="http://www.w3.org/2000/svg">
  <path d="M 369.38609 211.24089 L 340.99794 211.24089 L 340.99794 215.03803000000002 L 369.38609 215.03803000000002 L 369.38609 211.24089 Z" fill="#1E8DEE" transform="matrix(1, 0, 0, 1, 966.999939, 390.5)"/>
  <path d="M 357.2714 218.47354 L 353.07646000000005 218.47354 L 353.07646000000005 236.55517 L 357.2714 236.55517 L 357.2714 218.47354 Z" fill="#FC3E02" transform="matrix(1, 0, 0, 1, 966.999939, 390.5)"/>
  <path d="M 373.00241 211.24089 L 373.00241 218.2204 L 377.23351 218.2204 L 377.23351 211.24089 L 373.00241 211.24089 Z" fill="#FC3E02" transform="matrix(1, 0, 0, 1, 966.999939, 390.5)"/>
  <path d="M 401.67987 211.24089 L 397.48493 211.24089 L 397.48493 221.51125000000002 L 373.00241 221.51125000000002 L 373.00241 236.55516000000003 L 377.23351 236.55516000000003 L 377.23351 225.30839000000003 L 397.48493 225.30839000000003 L 397.48493 236.55516000000003 L 401.67987 236.55516000000003 L 401.67987 211.24089 Z" fill="#1E8DEE" transform="matrix(1, 0, 0, 1, 966.999939, 390.5)"/>
  <path d="M 405.29619 211.24089 L 405.29619 229.46717 L 409.49113 229.46717 L 409.49113 225.27223 L 427.46427 225.27223 L 427.46427 221.51125000000002 L 409.49113 221.51125000000002 L 409.49113 215.00186000000002 L 427.4281 215.00186000000002 L 427.4281 211.24088000000003 L 405.29619 211.24089 Z" fill="#1E8DEE" transform="matrix(1, 0, 0, 1, 966.999939, 390.5)"/>
  <path d="M 405.29619 232.75802 L 405.29619 236.55516 L 427.42810000000003 236.55516 L 427.42810000000003 232.75802 L 405.29619 232.75802 Z" fill="#FC3E02" transform="matrix(1, 0, 0, 1, 966.999939, 390.5)"/>
  <path d="M 431.08059 211.24089 L 431.08059 229.46717 L 435.27552999999995 229.46717 L 435.27552999999995 225.27223 L 453.24866999999995 225.27223 L 453.24866999999995 221.51125000000002 L 435.27552999999995 221.51125000000002 L 435.27552999999995 215.00186000000002 L 453.2124999999999 215.00186000000002 L 453.2124999999999 211.24088000000003 L 431.08059 211.24089 Z" fill="#1E8DEE" transform="matrix(1, 0, 0, 1, 966.999939, 390.5)"/>
  <path d="M 431.08059 232.75802 L 431.08059 236.55516 L 453.2125 236.55516 L 453.2125 232.75802 L 431.08059 232.75802 Z" fill="#FC3E02" transform="matrix(1, 0, 0, 1, 966.999939, 390.5)"/>
  <path d="M482.72172,223.97035c-1.51886,-1.15722 -3.86947,-1.91665 -7.05183,-2.35061c-1.12106,-0.14465 -3.43551,-0.32547 -6.94334,-0.54245c-2.35061,-0.14465 -4.08645,-0.3978 -5.13518,-0.79559c-1.44653,-0.50629 -2.20596,-1.30188 -2.20596,-2.42294c0,-1.0849 0.6871,-1.91665 2.06131,-2.53143c1.3742,-0.61478 3.36318,-0.90408 5.96694,-0.90408c3.90563,0 7.70277,0.94024 11.46375,2.8569l1.772,-3.32702c-3.544,-2.1698 -7.84743,-3.25469 -12.91028,-3.25469c-4.08645,0 -7.23265,0.6871 -9.43861,2.06131c-2.24212,1.3742 -3.36318,3.25469 -3.36318,5.64147c0,2.31445 0.97641,3.97796 2.96539,4.95437c1.66351,0.83175 4.59273,1.3742 8.78767,1.66351c4.70122,0.32547 7.59428,0.61478 8.67918,0.86792c2.02514,0.54245 3.07388,1.62735 3.07388,3.21853c0,1.3742 -0.79559,2.4591 -2.35061,3.25469c-1.62735,0.83175 -3.94179,1.22955 -6.90718,1.22955c-4.55657,0 -8.82383,-1.19339 -12.80179,-3.61633l-1.59118,3.58016c3.544,2.49526 8.31755,3.72481 14.35681,3.72481c4.48424,0 7.88359,-0.72327 10.27036,-2.20596c2.38677,-1.48269 3.58016,-3.544 3.58016,-6.22008c0,-2.09747 -0.75943,-3.72481 -2.27828,-4.88204z" fill="#1E8DEE" transform="matrix(1, 0, 0, 1, 966.999939, 390.5)"/>
</svg>