<svg viewBox="1307.998 601.198 144.002 26.58" xmlns="http://www.w3.org/2000/svg"><path d="M1336.386 601.74h-28.388v3.798h28.388v-3.797z" data-paper-data="{&quot;glyphName&quot;:&quot;T&quot;,&quot;glyphIndex&quot;:9,&quot;firstGlyphOfWord&quot;:true,&quot;word&quot;:2}" fill="#1E8DEE" data-original-fill="#1E8DEE"/><path d="M1324.271 608.974h-4.195v18.081h4.195v-18.081z" data-paper-data="{&quot;glyphName&quot;:&quot;T&quot;,&quot;glyphIndex&quot;:9,&quot;firstGlyphOfWord&quot;:true,&quot;word&quot;:2}" data-original-fill="#1E8DEE" fill="#fc3002"/><path d="M1340.002 601.74v6.98h4.231v-6.98h-4.23z" data-paper-data="{&quot;glyphName&quot;:&quot;H&quot;,&quot;glyphIndex&quot;:10,&quot;word&quot;:2}" data-original-fill="#1E8DEE" fill="#fc3002"/><path d="M1368.68 601.74h-4.195v10.271h-24.483v15.044h4.231v-11.247h20.252v11.247h4.195v-25.314z" data-paper-data="{&quot;glyphName&quot;:&quot;H&quot;,&quot;glyphIndex&quot;:10,&quot;word&quot;:2}" fill="#1E8DEE" data-original-fill="#1E8DEE"/><path d="M1372.296 601.74v18.227h4.195v-4.195h17.973v-3.76h-17.973v-6.51h17.937v-3.761h-22.132z" data-paper-data="{&quot;glyphName&quot;:&quot;E&quot;,&quot;glyphIndex&quot;:11,&quot;word&quot;:2}" fill="#1E8DEE" data-original-fill="#1E8DEE"/><path d="M1372.296 623.258v3.797h22.132v-3.797h-22.132z" data-paper-data="{&quot;glyphName&quot;:&quot;E&quot;,&quot;glyphIndex&quot;:11,&quot;word&quot;:2}" data-original-fill="#1E8DEE" fill="#fc3002"/><path d="M1398.08 601.74v18.227h4.195v-4.195h17.974v-3.76h-17.974v-6.51h17.937v-3.761h-22.131z" data-paper-data="{&quot;glyphName&quot;:&quot;E&quot;,&quot;glyphIndex&quot;:12,&quot;word&quot;:2}" fill="#1E8DEE" data-original-fill="#1E8DEE"/><path d="M1398.08 623.258v3.797h22.132v-3.797h-22.131z" data-paper-data="{&quot;glyphName&quot;:&quot;E&quot;,&quot;glyphIndex&quot;:12,&quot;word&quot;:2}" data-original-fill="#1E8DEE" fill="#fc3002"/><path d="M1449.722 614.47c-1.52-1.157-3.87-1.916-7.052-2.35-1.121-.145-3.436-.326-6.944-.543-2.35-.144-4.086-.398-5.135-.795-1.446-.507-2.206-1.302-2.206-2.423 0-1.085.687-1.917 2.062-2.532 1.374-.614 3.363-.904 5.967-.904 3.905 0 7.702.94 11.463 2.857l1.772-3.327c-3.544-2.17-7.847-3.255-12.91-3.255-4.086 0-7.233.688-9.439 2.062-2.242 1.374-3.363 3.254-3.363 5.641 0 2.315.977 3.978 2.966 4.955 1.663.831 4.592 1.374 8.787 1.663 4.702.326 7.595.615 8.68.868 2.025.542 3.073 1.627 3.073 3.219 0 1.374-.795 2.459-2.35 3.254-1.628.832-3.942 1.23-6.907 1.23-4.557 0-8.824-1.194-12.802-3.617l-1.591 3.58c3.544 2.496 8.317 3.725 14.356 3.725 4.485 0 7.884-.723 10.27-2.206 2.388-1.482 3.581-3.544 3.581-6.22 0-2.097-.76-3.724-2.278-4.882z" data-paper-data="{&quot;glyphName&quot;:&quot;S&quot;,&quot;glyphIndex&quot;:13,&quot;lastGlyphOfWord&quot;:true,&quot;word&quot;:2}" fill="#1E8DEE" data-original-fill="#1E8DEE"/></svg>